<?xml version="1.0" encoding="UTF-8"?>
<svg width="15px" height="14px" viewBox="0 0 15 14" version="1.1" xmlns="http://www.w3.org/2000/svg" xmlns:xlink="http://www.w3.org/1999/xlink">
    <!-- Generator: sketchtool 63.1 (101010) - https://sketch.com -->
    <title>D5654A93-4DF4-4D75-B796-F4039D4F4B0C</title>
    <desc>Created with sketchtool.</desc>
    <g id="Challenge-Pages" stroke="none" stroke-width="1" fill="none" fill-rule="evenodd">
        <g id="Description-Edit" transform="translate(-1223.000000, -500.000000)" fill-rule="nonzero">
            <g id="Group" transform="translate(1212.000000, 421.000000)">
                <g id="bi-check-circle" transform="translate(10.000000, 78.000000)">
                    <g id="Icon" transform="translate(1.000000, 1.000000)" fill="#4CD964">
                        <path d="M10.25,1.37 C10.4127392,1.45513143 10.5157062,1.62263067 10.5181919,1.80627496 C10.5206776,1.98991926 10.4222818,2.16014402 10.2619064,2.24964894 C10.101531,2.33915386 9.90499454,2.33352969 9.75,2.235 C8.91422477,1.75169063 7.96545565,1.49811052 7,1.5 C3.96243388,1.5 1.5,3.96243388 1.5,7 C1.5,10.0375661 3.96243388,12.5 7,12.5 C10.0375661,12.5 12.5,10.0375661 12.5,7 C12.5,6.72385763 12.7238576,6.5 13,6.5 C13.2761424,6.5 13.5,6.72385763 13.5,7 C13.4996222,9.94185929 11.5234103,12.5167096 8.68171906,13.277845 C5.84002783,14.0389805 2.8413923,12.796623 1.37062624,10.2488037 C-0.100139811,7.70098432 0.323678075,4.48296542 2.40395353,2.40282353 C4.48422898,0.32268164 7.70227508,-0.100929635 10.25,1.37 Z M14,1.49910622 C14.1328273,1.49910622 14.2601957,1.5519583 14.354,1.646 C14.4480417,1.73980426 14.5008938,1.86717274 14.5008938,2 C14.5008938,2.13282726 14.4480417,2.26019574 14.354,2.354 L7.354,9.354 C7.26019574,9.4480417 7.13282726,9.50089378 7,9.50089378 C6.86717274,9.50089378 6.73980426,9.4480417 6.646,9.354 L3.646,6.354 C3.51952798,6.22752798 3.47013503,6.043191 3.516427,5.870427 C3.56271897,5.69766301 3.69766301,5.56271897 3.870427,5.516427 C4.043191,5.47013503 4.22752798,5.51952798 4.354,5.646 L7,8.293 L13.646,1.646 C13.7398043,1.5519583 13.8671727,1.49910622 14,1.49910622 Z" id="Combined-Shape"></path>
                    </g>
                    <rect id="ViewBox" x="0" y="0" width="16" height="16"></rect>
                </g>
            </g>
        </g>
    </g>
</svg>