<?xml version="1.0" encoding="UTF-8"?>
<svg width="120px" height="120px" viewBox="0 0 120 120" version="1.1" xmlns="http://www.w3.org/2000/svg" xmlns:xlink="http://www.w3.org/1999/xlink">
    <!-- Generator: sketchtool 63.1 (101010) - https://sketch.com -->
    <title>36AA52BC-8E46-4C90-A641-3351FB2D7827</title>
    <desc>Created with sketchtool.</desc>
    <g id="Challenge-Pages" stroke="none" stroke-width="1" fill="none" fill-rule="evenodd">
        <g id="1-Select-Target" transform="translate(-406.000000, -455.000000)" fill-rule="nonzero">
            <g id="idea" transform="translate(406.000000, 455.000000)">
                <path d="M86.849325,13.5483871 L71.6129032,28.7848089 L71.6736764,28.8455821 C80.6739868,32.2214336 87.8236562,39.3593404 91.1897056,48.3616113 L91.2151911,48.3870968 L106.451613,33.150675 L86.849325,13.5483871 Z" id="Path" fill="#FFC000"></path>
                <path d="M30.7666278,108.387097 L46.4516129,92.3457458 C46.4190516,92.2752257 46.3788287,92.2086235 46.344352,92.1381034 L37.6887839,81.1820311 C34.562896,78.047807 31.4523312,74.8959528 29.3875597,70.6765035 L29.3626598,70.6451613 L11.6129032,88.7981958 L30.7666278,108.387097 Z" id="Path" fill="#FFC000"></path>
                <g id="Group" transform="translate(69.677419, 58.064516)">
                    <path d="M46.3065456,32.9032258 L50.3225806,32.9032258 L50.3225806,21.2903226 L46.3065456,21.2903226 C44.7861196,21.2903226 43.4278985,20.3903226 42.8162105,18.9251613 C42.2240651,17.52 42.5387034,15.9232258 43.6155089,14.8548387 L46.458979,12.0367742 L38.165036,3.82258065 L35.3176574,6.64064516 C34.2428061,7.70903226 32.628575,8.01483871 31.3309364,7.4883871 L31.1335547,7.39935484 C29.7323395,6.82645161 28.8255559,5.48322581 28.8255559,3.97741935 L28.8255559,0 L22.8650172,0 C22.9021484,0.644516129 22.962731,1.28129032 22.962731,1.93548387 C22.962731,8.35548387 21.008456,12.84 18.2783339,16.5580645 L18.4405387,16.3819355 C19.8319825,15.8032258 21.3602255,15.483871 22.962731,15.483871 C29.4313811,15.483871 34.6883808,20.6903226 34.6883808,27.0967742 C34.6883808,33.5032258 29.4313811,38.7096774 22.962731,38.7096774 C16.4940808,38.7096774 11.2370811,33.5032258 11.2370811,27.0967742 C11.2370811,25.8929032 11.4227372,24.7316129 11.7666896,23.6380645 C7.72134043,27.5458065 3.68771688,31.4632258 1.80184153,37.5096774 L1.71976198,37.4709677 C2.74575634,38.1658065 3.41998121,39.3232258 3.41998121,40.6451613 C3.41998121,42.116129 2.58355152,43.3780645 1.36408393,44.0341935 L7.75847166,50.3690323 L10.6058503,47.5509677 C11.6807015,46.4806452 13.2910241,46.1709677 14.5925712,46.7032258 L14.789953,46.7883871 C16.1911682,47.3670968 17.099906,48.7103226 17.099906,50.216129 L17.099906,54.1935484 L28.8255559,54.1935484 L28.8255559,50.216129 C28.8255559,48.7103226 29.7342938,47.3651613 31.2136799,46.7593548 C32.6324836,46.1748387 34.2447604,46.4825806 35.3215659,47.5509677 L38.1669903,50.3690323 L46.4609333,42.1548387 L43.6174632,39.3367742 C42.5406577,38.2683871 42.2260194,36.6716129 42.8494331,35.1929032 C43.4298528,33.8032258 44.7861196,32.9032258 46.3065456,32.9032258 L46.3065456,32.9032258 Z" id="Path" fill="#FFC000"></path>
                    <path d="M1.72171625,37.4709677 C1.37190103,37.2348387 0.983000313,37.0509677 0.564785468,36.9348387 L1.72171625,37.4709677 Z" id="Path" fill="#F0BC5E"></path>
                </g>
                <g id="Group" fill="#000000">
                    <path d="M92.9032258,90.9677419 C96.1045161,90.9677419 98.7096774,88.3625806 98.7096774,85.1612903 C98.7096774,81.96 96.1045161,79.3548387 92.9032258,79.3548387 C89.7019355,79.3548387 87.0967742,81.96 87.0967742,85.1612903 C87.0967742,88.3625806 89.7019355,90.9677419 92.9032258,90.9677419 Z M92.9032258,83.2258065 C93.9696774,83.2258065 94.8387097,84.0929032 94.8387097,85.1612903 C94.8387097,86.2296774 93.9696774,87.0967742 92.9032258,87.0967742 C91.8367742,87.0967742 90.9677419,86.2296774 90.9677419,85.1612903 C90.9677419,84.0929032 91.8367742,83.2258065 92.9032258,83.2258065 Z" id="Shape"></path>
                    <path d="M120,15.6212903 C120,7.0083871 112.991613,0 104.37871,0 C100.205806,0 96.2825806,1.62580645 93.3329032,4.57548387 L70.9587097,26.9516129 C68.0651613,25.98 64.9974194,25.4148387 61.8290323,25.2464516 C59.1580645,20.58 54.1393548,17.4193548 48.3870968,17.4193548 C46.9141935,17.4193548 45.4935484,17.64 44.1406452,18.0251613 C40.8,11.7445161 34.3103226,7.74193548 27.0967742,7.74193548 C16.4245161,7.74193548 7.74193548,16.4245161 7.74193548,27.0967742 C7.74193548,28.5793548 7.92387097,30.0387097 8.25483871,31.4670968 C3.48387097,32.9109677 3.43811001e-15,37.3451613 3.43811001e-15,42.5806452 C3.43811001e-15,48.9851613 5.2083871,54.1935484 11.6129032,54.1935484 L25.6529032,54.1935484 C25.3316129,56.1077419 25.1612903,58.0509677 25.1612903,60 C25.1612903,64.26 25.9490323,67.7264516 27.2206452,70.6877419 L9.95419355,87.956129 L0.346451613,112.935484 C0.116129032,113.531613 3.43811001e-15,114.15871 3.43811001e-15,114.799355 C3.43811001e-15,117.667742 2.33419355,120 5.20064516,120 C5.84129032,120 6.4683871,119.881935 7.06645161,119.653548 L32.0458065,110.045806 L44.6709677,97.4187097 C44.576129,97.8348387 44.516129,98.2645161 44.516129,98.7096774 C44.516129,100.201935 45.0987097,101.550968 46.0258065,102.580645 C45.0967742,103.610323 44.516129,104.959355 44.516129,106.451613 C44.516129,109.141935 46.3645161,111.390968 48.8516129,112.045161 C50.5006452,116.767742 54.9174194,120 60,120 C65.0825806,120 69.4993548,116.767742 71.1483871,112.045161 C73.6354839,111.390968 75.483871,109.141935 75.483871,106.451613 C75.483871,104.959355 74.9012903,103.610323 73.9741935,102.580645 C74.9032258,101.550968 75.483871,100.201935 75.483871,98.7096774 C75.483871,97.3354839 74.9845161,96.0890323 74.1832258,95.0922581 C75.3870968,91.8425806 77.2741935,89.2432258 79.4709677,86.8432258 C80.3032258,93.5206452 86.0032258,98.7096774 92.9032258,98.7096774 C100.374194,98.7096774 106.451613,92.6303226 106.451613,85.1612903 C106.451613,77.6922581 100.374194,71.6129032 92.9032258,71.6129032 C92.7135484,71.6129032 92.5296774,71.6322581 92.3419355,71.64 C93.8651613,68.4735484 94.8387097,64.7283871 94.8387097,60 C94.8387097,56.1851613 94.1845161,52.5154839 93.0270968,49.0664516 L115.424516,26.6690323 C118.374194,23.7174194 120,19.7941935 120,15.6212903 Z M3.87096774,42.5806452 C3.87096774,38.3109677 7.34322581,34.8387097 11.6129032,34.8387097 C15.8825806,34.8387097 19.3548387,38.3109677 19.3548387,42.5806452 L23.2258065,42.5806452 C23.2258065,36.3445161 18.2806452,31.2541935 12.1083871,30.9929032 C11.7793548,29.7270968 11.6129032,28.4206452 11.6129032,27.0967742 C11.6129032,18.5593548 18.5593548,11.6129032 27.0967742,11.6129032 C32.7580645,11.6129032 37.8677419,14.6903226 40.5851613,19.5503226 C36.4587097,21.9716129 33.543871,26.2354839 33,31.2116129 C29.6206452,32.043871 27.0967742,35.0767742 27.0967742,38.7096774 L30.9677419,38.7096774 C30.9677419,36.5748387 32.703871,34.8387097 34.8387097,34.8387097 C36.9735484,34.8387097 38.7096774,36.5748387 38.7096774,38.7096774 L42.5806452,38.7096774 C42.5806452,35.1580645 40.1651613,32.1909677 36.9,31.2812903 C37.6935484,25.6451613 42.5341935,21.2903226 48.3870968,21.2903226 C54.7916129,21.2903226 60,26.4987097 60,32.9032258 C60,33.9212903 59.8335484,34.9180645 59.5741935,35.8896774 C56.4,37.4787097 54.1935484,40.7303226 54.1935484,44.516129 L58.0645161,44.516129 C58.0645161,41.3148387 60.6696774,38.7096774 63.8709677,38.7096774 C67.0722581,38.7096774 69.6774194,41.3148387 69.6774194,44.516129 C69.6774194,47.7174194 67.0722581,50.3225806 63.8709677,50.3225806 L11.6129032,50.3225806 C7.34322581,50.3225806 3.87096774,46.8503226 3.87096774,42.5806452 Z M50.3225806,54.1935484 L50.3225806,60 C50.3225806,63.2012903 52.9277419,65.8064516 56.1290323,65.8064516 L71.6129032,65.8064516 C72.6793548,65.8064516 73.5483871,66.6735484 73.5483871,67.7419355 C73.5483871,68.8103226 72.6793548,69.6774194 71.6129032,69.6774194 L52.2580645,69.6774194 C49.0567742,69.6774194 46.4516129,72.2825806 46.4516129,75.483871 C46.4516129,78.6851613 49.0567742,81.2903226 52.2580645,81.2903226 L56.1290323,81.2903226 C57.1954839,81.2903226 58.0645161,82.1574194 58.0645161,83.2258065 L58.0645161,92.9032258 L50.3225806,92.9032258 C49.9296774,92.9032258 49.5464516,92.943871 49.1767742,93.0193548 C46.9664516,87.5864516 43.1690323,83.8587097 39.4722581,80.2529032 C34.1032258,75.0174194 29.0322581,70.0703226 29.0322581,60 C29.0322581,58.0432258 29.2664516,56.103871 29.6283871,54.1935484 L50.3225806,54.1935484 Z M71.6129032,98.7096774 C71.6129032,99.7780645 70.743871,100.645161 69.6774194,100.645161 L50.3225806,100.645161 C49.256129,100.645161 48.3870968,99.7780645 48.3870968,98.7096774 C48.3870968,97.6412903 49.256129,96.7741935 50.3225806,96.7741935 L69.6774194,96.7741935 C70.743871,96.7741935 71.6129032,97.6412903 71.6129032,98.7096774 Z M5.67870968,116.04 C4.84064516,116.365161 3.87096774,115.697419 3.87096774,114.799355 C3.87096774,114.634839 3.90193548,114.474194 3.95806452,114.323226 L5.89741935,109.279355 L10.7187097,114.100645 L5.67870968,116.04 Z M29.8896774,106.728387 L14.6729032,112.58129 L7.41870968,105.327097 L13.2716129,90.1103226 L29.1174194,74.2645161 C30.9348387,77.1193548 33.1877419,79.5 35.4909677,81.7722581 L19.9219355,97.3412903 L22.6587097,100.078065 L38.2548387,84.4819355 C40.6354839,86.8432258 42.8458065,89.2316129 44.4754839,92.1406452 L29.8896774,106.728387 Z M60,116.129032 C57.1412903,116.129032 54.5922581,114.607742 53.1793548,112.258065 L66.8206452,112.258065 C65.4077419,114.607742 62.8587097,116.129032 60,116.129032 Z M69.6774194,108.387097 L50.3225806,108.387097 C49.256129,108.387097 48.3870968,107.52 48.3870968,106.451613 C48.3870968,105.383226 49.256129,104.516129 50.3225806,104.516129 L69.6774194,104.516129 C70.743871,104.516129 71.6129032,105.383226 71.6129032,106.451613 C71.6129032,107.52 70.743871,108.387097 69.6774194,108.387097 Z M70.8232258,93.0193548 C70.4535484,92.943871 70.0703226,92.9032258 69.6774194,92.9032258 L61.9354839,92.9032258 L61.9354839,83.2258065 C61.9354839,80.0245161 59.3303226,77.4193548 56.1290323,77.4193548 L52.2580645,77.4193548 C51.1916129,77.4193548 50.3225806,76.5522581 50.3225806,75.483871 C50.3225806,74.4154839 51.1916129,73.5483871 52.2580645,73.5483871 L71.6129032,73.5483871 C74.8141935,73.5483871 77.4193548,70.9432258 77.4193548,67.7419355 C77.4193548,64.5406452 74.8141935,61.9354839 71.6129032,61.9354839 L56.1290323,61.9354839 C55.0625806,61.9354839 54.1935484,61.0683871 54.1935484,60 L54.1935484,54.1935484 L63.8709677,54.1935484 C69.2070968,54.1935484 73.5483871,49.8522581 73.5483871,44.516129 C73.5483871,39.18 69.2070968,34.8387097 63.8709677,34.8387097 C63.8167742,34.8387097 63.7664516,34.8541935 63.7122581,34.8541935 C63.7954839,34.2077419 63.8709677,33.5612903 63.8709677,32.9032258 C63.8709677,31.6374194 63.7006452,30.4122581 63.4141935,29.2335484 C78.843871,30.9522581 90.9677419,44.1948387 90.9677419,60 C90.9677419,70.0703226 85.8967742,75.0174194 80.5277419,80.2529032 C76.8309677,83.8587097 73.0335484,87.5864516 70.8232258,93.0193548 Z M92.9032258,75.483871 C98.2393548,75.483871 102.580645,79.8251613 102.580645,85.1612903 C102.580645,90.4974194 98.2393548,94.8387097 92.9032258,94.8387097 C87.5670968,94.8387097 83.2258065,90.4974194 83.2258065,85.1612903 C83.2258065,84.3232258 83.3554839,83.4987097 83.5664516,82.6954839 C85.6780645,80.6341935 87.7935484,78.5283871 89.6187097,76.0935484 C90.6716129,75.7103226 91.7670968,75.483871 92.9032258,75.483871 L92.9032258,75.483871 Z M85.8909677,36.8477419 L97.5754839,25.1612903 L94.8387097,22.4245161 L83.1580645,34.1051613 C80.6729032,31.8754839 77.876129,30 74.8335484,28.5483871 L90.9677419,12.4141935 L107.585806,29.0322581 L91.4419355,45.176129 C89.9922581,42.1335484 88.1187097,39.3348387 85.8909677,36.8477419 L85.8909677,36.8477419 Z M110.322581,26.2954839 L93.7045161,9.67741935 L96.0696774,7.31225806 C98.2896774,5.09419355 101.239355,3.87096774 104.37871,3.87096774 C110.856774,3.87096774 116.129032,9.14322581 116.129032,15.6212903 C116.129032,18.7587097 114.907742,21.7103226 112.687742,23.9303226 L110.322581,26.2954839 Z" id="Shape"></path>
                </g>
            </g>
        </g>
    </g>
</svg>