<?xml version="1.0" encoding="UTF-8"?>
<svg width="210px" height="210px" viewBox="0 0 210 210" version="1.1" xmlns="http://www.w3.org/2000/svg" xmlns:xlink="http://www.w3.org/1999/xlink">
    <!-- Generator: sketchtool 63.1 (101010) - https://sketch.com -->
    <title>BFDEA922-6FDC-4F17-9254-7ED1D74BE412</title>
    <desc>Created with sketchtool.</desc>
    <g id="Challenge-Pages" stroke="none" stroke-width="1" fill="none" fill-rule="evenodd">
        <g id="5-Challenge-Created" transform="translate(-615.000000, -160.000000)" fill-rule="nonzero">
            <g id="launch" transform="translate(615.000000, 160.000000)">
                <path d="M208.043478,158.825678 L208.043478,126.080444 L194.895374,123.882147 C194.120125,121.578305 193.195725,119.332182 192.145123,117.175113 L199.886147,106.26938 L185.14329,91.4354067 C183.855031,91.6481455 182.53891,91.7899709 181.190008,91.7899709 L109.008194,91.7899709 C110.111245,96.1090568 110.699648,100.635933 110.699648,105.299689 C110.699648,123.13179 102.093229,138.909069 88.8500628,148.736267 C85.0213453,151.581026 82.2415916,155.548846 81.0434783,160.041091 L86.9242309,161.027274 C87.6994805,163.327818 88.6222409,165.57394 89.6728435,167.731009 L81.9318192,178.636742 L104.938543,201.785656 L115.777288,193.99679 C117.926025,195.055535 120.158351,195.983998 122.444764,196.764039 L124.636114,210 L157.178574,210 L159.365008,196.770636 C161.653059,195.990594 163.885385,195.062131 166.030844,194.005036 L176.869589,201.792253 L199.876313,178.643339 L192.135289,167.737606 C193.185891,165.577238 194.11029,163.331116 194.88554,161.030572 L208.043478,158.825678 Z M140.909802,176.225706 C122.371009,176.225706 107.342964,161.104783 107.342964,142.451412 C107.342964,123.798041 122.371009,108.677118 140.909802,108.677118 C159.448597,108.677118 174.47664,123.798041 174.47664,142.451412 C174.47664,161.104783 159.448597,176.225706 140.909802,176.225706 Z" id="Shape" fill="#D8D8D8"></path>
                <path d="M67.1973244,90.9145616 C54.1116876,90.9145616 43.5050167,80.2592041 43.5050167,67.1172083 C43.5050167,65.4655369 43.6735866,63.8537043 43.9925469,62.2966507 C26.0630097,67.8824556 13.0434783,84.6697486 13.0434783,104.513049 C13.0434783,128.922932 32.741345,148.708134 57.0434783,148.708134 C81.343959,148.708134 101.043478,128.922932 101.043478,104.513049 C101.043478,99.7638705 100.278304,95.2006086 98.8966937,90.9145616 L67.1973244,90.9145616 Z" id="Path" fill="#FFC000"></path>
                <polygon id="Path" fill="#000000" points="7.04347826 37.1770335 13.0434783 37.1770335 13.0434783 43.2057416 7.04347826 43.2057416"></polygon>
                <polygon id="Path" fill="#000000" points="0.0434782609 44.2105263 6.04347826 44.2105263 6.04347826 50.2392344 0.0434782609 50.2392344"></polygon>
                <polygon id="Path" fill="#000000" points="7.04347826 51.2440191 13.0434783 51.2440191 13.0434783 57.2727273 7.04347826 57.2727273"></polygon>
                <polygon id="Path" fill="#000000" points="14.0434783 44.2105263 20.0434783 44.2105263 20.0434783 50.2392344 14.0434783 50.2392344"></polygon>
                <polygon id="Path" fill="#000000" points="88.0434783 61.291866 94.0434783 61.291866 94.0434783 67.3205742 88.0434783 67.3205742"></polygon>
                <polygon id="Path" fill="#000000" points="81.0434783 68.3253589 87.0434783 68.3253589 87.0434783 74.354067 81.0434783 74.354067"></polygon>
                <polygon id="Path" fill="#000000" points="88.0434783 74.354067 94.0434783 74.354067 94.0434783 80.3827751 88.0434783 80.3827751"></polygon>
                <polygon id="Path" fill="#000000" points="94.0434783 68.3253589 100.043478 68.3253589 100.043478 74.354067 94.0434783 74.354067"></polygon>
                <polygon id="Path" fill="#000000" points="40.0434783 0 46.0434783 0 46.0434783 6.02870813 40.0434783 6.02870813"></polygon>
                <polygon id="Path" fill="#000000" points="34.0434783 7.03349282 40.0434783 7.03349282 40.0434783 13.062201 34.0434783 13.062201"></polygon>
                <polygon id="Path" fill="#000000" points="40.0434783 14.0669856 46.0434783 14.0669856 46.0434783 20.0956938 40.0434783 20.0956938"></polygon>
                <polygon id="Path" fill="#000000" points="48.0434783 7.03349282 54.0434783 7.03349282 54.0434783 13.062201 48.0434783 13.062201"></polygon>
                <polygon id="Path" fill="#000000" points="138.043478 189.904306 144.043478 189.904306 144.043478 195.933014 138.043478 195.933014"></polygon>
                <polygon id="Path" fill="#000000" points="173.043478 178.349282 177.543478 173.827751 182.043478 178.349282 177.543478 182.870813"></polygon>
                <polygon id="Path" fill="#000000" points="189.043478 138.660287 195.043478 138.660287 195.043478 144.688995 189.043478 144.688995"></polygon>
                <polygon id="Path" fill="#000000" points="173.043478 106.004785 177.543478 101.483254 182.043478 106.004785 177.543478 110.526316"></polygon>
                <polygon id="Path" fill="#000000" points="101.043478 178.349282 105.543478 173.827751 110.043478 178.349282 105.543478 182.870813"></polygon>
                <path d="M141.543478,118.564593 C128.588645,118.564593 118.043478,129.160215 118.043478,142.177033 C118.043478,155.193852 128.588645,165.789474 141.543478,165.789474 C154.498312,165.789474 165.043478,155.193852 165.043478,142.177033 C165.043478,129.160215 154.498312,118.564593 141.543478,118.564593 Z M141.543478,159.043062 C132.286747,159.043062 124.757764,151.476409 124.757764,142.177033 C124.757764,132.877659 132.286747,125.311005 141.543478,125.311005 C150.798571,125.311005 158.329193,132.877659 158.329193,142.177033 C158.329193,151.476409 150.798571,159.043062 141.543478,159.043062 Z" id="Shape" fill="#000000"></path>
                <path d="M188.561199,41.4720891 C188.715919,40.0696193 188.817968,38.6638421 188.817968,37.2580644 C188.817968,16.715521 172.182289,0 151.737866,0 C137.89702,0 125.822285,7.67554477 119.450788,18.9945346 C114.030654,15.4784369 107.687139,13.548387 101.17409,13.548387 C84.8791235,13.548387 71.2506058,25.2295709 68.1348103,40.6931233 C67.9126062,40.6898154 67.6904024,40.6451612 67.4649061,40.6451612 C60.3115804,40.6451612 53.8182832,43.4765624 48.9857556,48.0593971 C23.5688991,51.7574187 3.22817207,72.7481571 0.403711157,98.4805004 C-1.85454081,119.036275 6.60238216,138.684082 23.0257338,151.036731 C27.6311191,154.504867 30.2695871,159.575589 30.2695871,164.955582 L30.2695871,182.903226 C30.2695871,197.84416 42.3673653,210 57.2369342,210 C72.1065031,210 84.2042813,197.84416 84.2042813,182.903226 L84.2042813,164.866274 C84.2042813,159.600397 86.806538,154.647099 91.3444396,151.28481 C96.734946,147.290748 101.312351,142.406912 104.956498,136.929341 C104.70302,138.68739 104.545008,140.466939 104.545008,142.258064 C104.545008,162.800608 121.180688,179.516129 141.625111,179.516129 C150.156102,179.516129 158.489578,176.525958 165.089863,171.099657 L160.815314,165.858588 C155.421516,170.295882 148.602319,172.741935 141.625111,172.741935 C124.895612,172.741935 111.286845,159.067855 111.286845,142.258064 C111.286845,135.247369 113.719569,128.393791 118.135669,122.975759 L112.972304,118.720388 C114.073449,114.266554 114.657763,109.663873 114.657763,105 C114.657763,101.578172 114.340094,98.1778446 113.750842,94.8387096 L182.076131,94.8387096 C196.9457,94.8387096 209.043478,82.6828693 209.043478,67.7419354 C209.043478,55.0502458 200.301805,44.4010679 188.561199,41.4720891 Z M37.014716,176.129032 L77.4657366,176.129032 L77.4657366,182.903226 L37.014716,182.903226 L37.014716,176.129032 Z M43.7565527,124.879347 C42.6718675,125.170426 41.5427413,125.322581 40.3856344,125.322581 C38.5257036,125.322581 37.014716,123.804341 37.014716,121.935484 C37.014716,120.064973 38.5257036,118.548387 40.3856344,118.548387 C42.2472106,118.548387 43.7565527,120.064973 43.7565527,121.935484 L43.7565527,124.879347 Z M63.9820631,169.354839 L50.4983895,169.354839 L50.4983895,129.291835 C51.8579492,128.468215 53.1286274,127.472593 54.2807968,126.314894 L57.2402263,123.337954 L60.2029475,126.314894 C61.340303,127.456055 62.6142733,128.448368 63.9820631,129.271988 L63.9820631,169.354839 Z M57.2402263,203.225806 C48.4524658,203.225806 40.9798245,197.559696 38.1948665,189.677419 L76.2855857,189.677419 C73.4989819,197.559696 66.0246947,203.225806 57.2402263,203.225806 Z M107.915927,105 C107.915927,121.260711 100.415304,136.143759 87.3431199,145.835355 C81.0654426,150.492613 77.4624445,157.428884 77.4624445,164.866274 L77.4624445,169.354839 L70.7206077,169.354839 L70.7206077,131.79908 C71.8299824,131.994235 72.9591082,132.096774 74.0915261,132.096774 C79.6680259,132.096774 84.2042813,127.537094 84.2042813,121.935484 C84.2042813,116.333874 79.6680259,111.774193 74.0915261,111.774193 C68.9610806,111.774193 64.7112214,115.635947 64.0627148,120.617361 L57.2369342,113.75882 L50.4111535,120.617361 C49.7708767,115.639254 45.5160799,111.774193 40.3856344,111.774193 C34.8107805,111.774193 30.2728792,116.333874 30.2728792,121.935484 C30.2728792,127.537094 34.8107805,132.096774 40.3856344,132.096774 C41.5279278,132.096774 42.6554077,132.002504 43.7565527,131.809003 L43.7565527,169.354839 L37.014716,169.354839 L37.014716,164.955582 C37.014716,157.422269 33.391966,150.376843 27.071494,145.613738 C12.5755577,134.714828 5.11279186,117.369188 7.10769083,99.2214278 C9.33631579,78.8988471 23.9524072,61.918709 43.0800646,56.2492912 C41.4406922,59.7422348 40.497559,63.63045 40.497559,67.7419354 C40.497559,82.6828693 52.5953376,94.8387096 67.4649061,94.8387096 L106.887204,94.8387096 C107.562046,98.1679217 107.915927,101.571557 107.915927,105 Z M70.7238998,124.864463 L70.7238998,121.935484 C70.7238998,120.064973 72.2348875,118.548387 74.0948182,118.548387 C75.9563944,118.548387 77.4657366,120.064973 77.4657366,121.935484 C77.4657366,123.804341 75.9563944,125.322581 74.0948182,125.322581 C72.9525244,125.322581 71.8168148,125.167118 70.7238998,124.864463 Z M182.076131,88.064516 L67.4649061,88.064516 C56.3102607,88.064516 47.2393957,78.9501163 47.2393957,67.7419354 C47.2393957,56.5337544 56.3102607,47.4193547 67.4649061,47.4193547 C67.4649061,48.689516 67.5356823,49.943139 67.6706509,51.1752615 L74.3713389,50.434334 C74.2643514,49.448636 74.2067428,48.4381299 74.2067428,47.4193547 C74.2067428,32.4784212 86.3045214,20.3225805 101.17409,20.3225805 C106.732484,20.3225805 112.152618,22.0558215 116.67406,25.2444555 C115.388568,29.0202085 114.657763,33.0506551 114.657763,37.2580644 L121.3996,37.2580644 C121.3996,20.4482736 135.008367,6.77419344 151.737866,6.77419344 C168.467365,6.77419344 182.076131,20.4482736 182.076131,37.2580644 C182.076131,38.3926097 181.998772,39.5271546 181.873679,40.6550845 C167.099576,40.7675467 155.108784,52.8688099 155.108784,67.7419354 L161.850621,67.7419354 C161.850621,56.5337544 170.921486,47.4193547 182.076131,47.4193547 C193.230777,47.4193547 202.301641,56.5337544 202.301641,67.7419354 C202.301641,78.9501163 193.230777,88.064516 182.076131,88.064516 Z" id="Shape" fill="#000000"></path>
            </g>
        </g>
    </g>
</svg>