<?xml version="1.0" encoding="UTF-8"?>
<svg width="91px" height="120px" viewBox="0 0 91 120" version="1.1" xmlns="http://www.w3.org/2000/svg" xmlns:xlink="http://www.w3.org/1999/xlink">
    <!-- Generator: sketchtool 63.1 (101010) - https://sketch.com -->
    <title>528CD5D7-65E8-4935-83D4-77562E015E1A</title>
    <desc>Created with sketchtool.</desc>
    <g id="Challenge-Pages" stroke="none" stroke-width="1" fill="none" fill-rule="evenodd">
        <g id="1-Select-Target" transform="translate(-675.000000, -455.000000)" fill-rule="nonzero">
            <g id="product" transform="translate(675.000000, 455.000000)">
                <polygon id="Path" fill="#FFFFFF" points="44.5138549 45.8093262 10.1522827 64.8458862 44.5138549 83.8833619 78.8763427 64.8458862"></polygon>
                <path d="M31.9894409,78.2757567 L57.0373535,78.2757567 C58.2577514,68.1243895 62.3171998,58.4921264 68.5766602,50.2761841 C72.4447631,45.1986694 74.7409057,38.8604738 74.7409057,31.9848633 C74.7409057,14.8068237 60.4119872,0.975036563 43.0535888,1.79168695 C27.4758912,2.52502453 14.8937988,15.2362059 14.3078613,30.819397 C14.029541,38.222351 16.4154052,45.0576783 20.5819702,50.4473878 C26.8551635,58.5598755 30.7965089,68.1784057 31.9894409,78.2757567 Z" id="Path" fill="#FFC000"></path>
                <path d="M66.0186769,27.7542115 C66.0186769,22.949524 63.0313111,18.8442994 58.8134766,17.1908569 C58.2824707,13.345642 54.9829102,10.3848267 50.9912109,10.3848267 C48.7261964,10.3848267 46.6836548,11.3378906 45.2435302,12.8659057 C44.7729492,13.3648683 44.5138549,14.0258789 44.5138549,14.7116088 L44.5138549,48.2592773 C44.5138549,50.1855469 46.0583496,51.7730714 47.9855346,51.7877198 C47.9992676,51.7877198 48.0130005,51.7886353 48.0258178,51.7886353 C50.559082,51.7886353 52.6620483,49.9520873 53.0795287,47.5378418 C53.3944702,47.5735474 53.7139894,47.591858 54.0380859,47.591858 C58.7210084,47.591858 62.5177003,43.7960815 62.5177003,39.1131591 C62.5177003,38.1500245 62.3565675,37.2244263 62.0608521,36.361084 C64.4833373,34.2819213 66.0186769,31.1975098 66.0186769,27.7542115 L66.0186769,27.7542115 Z" id="Path" fill="#FFFFFF"></path>
                <path d="M23.0099487,27.7542115 C23.0099487,22.949524 25.996399,18.8442994 30.2142333,17.1908569 C30.7461548,13.345642 34.0457154,10.3848267 38.0374146,10.3848267 C40.3024291,10.3848267 42.3440552,11.3378906 43.7850952,12.8659057 C44.2547606,13.3648683 44.5147706,14.0258789 44.5147706,14.7116088 L44.5147706,48.2592773 C44.5147706,50.1855469 42.9693605,51.7730714 41.0430909,51.7877198 C41.029358,51.7877198 41.015625,51.7886353 41.001892,51.7886353 C38.4686278,51.7886353 36.3656616,49.9520873 35.9490966,47.5378418 C35.6341552,47.5735474 35.3146362,47.591858 34.9896239,47.591858 C30.3067017,47.591858 26.5109252,43.7960815 26.5109252,39.1131591 C26.5109252,38.1500245 26.672058,37.2244263 26.9677734,36.361084 C24.5443725,34.2819213 23.0099487,31.1975098 23.0099487,27.7542115 Z" id="Path" fill="#FFFFFF"></path>
                <path d="M60.3616334,15.9484863 C59.3060302,11.7105103 55.4443359,8.62701422 50.9912109,8.62701422 C48.5998535,8.62701422 46.2799073,9.53155523 44.5147706,11.1273192 C42.7487182,9.53155523 40.4296875,8.62701422 38.0374146,8.62701422 C33.5852051,8.62701422 29.7225952,11.7105103 28.6669922,15.9484863 C24.1314698,18.1228638 21.2521362,22.6556395 21.2521362,27.7542115 C21.2521362,31.1965943 22.6016236,34.4760131 24.9902344,36.914978 C24.8327637,37.6336669 24.7531127,38.3697511 24.7531127,39.1131591 C24.7531127,44.6466066 29.1659545,49.1683959 34.6572877,49.3441772 C35.7119752,51.8499755 38.1784057,53.5464478 41.001892,53.5464478 L41.0568237,53.5455323 C42.3815918,53.5354615 43.5919191,53.0255128 44.5138549,52.1969604 C45.4321289,53.0255128 46.6387941,53.5354615 47.9562377,53.5455323 L48.0267333,53.5464478 C50.8511353,53.5464478 53.3175659,51.8499755 54.3722534,49.3441772 C59.8635865,49.1683959 64.2764283,44.6466066 64.2764283,39.1131591 C64.2764283,38.3697511 64.1967773,37.6336669 64.0393066,36.914978 C66.427002,34.4760131 67.7764894,31.1965943 67.7764894,27.7542115 C67.7764894,22.6556395 64.8971557,18.1228638 60.3616334,15.9484863 L60.3616334,15.9484863 Z M41.029358,50.0299073 C41.0238647,50.0299073 41.0073853,50.0308228 41.001892,50.0308228 C39.9142455,50.0308228 38.9382935,49.5153809 38.3184816,48.7005614 C39.5059205,48.2299805 40.6063842,47.5286864 41.567688,46.6204833 C42.272644,45.9539794 42.3046875,44.8416138 41.6381836,44.1357422 C40.9707642,43.4298705 39.8583984,43.3987427 39.1525268,44.0652466 C38.1729127,44.9908448 36.9836426,45.5877684 35.710144,45.7946777 C35.4675293,45.8203125 35.2258301,45.8340455 34.9896239,45.8340455 C31.2835692,45.8340455 28.2687377,42.8192137 28.2687377,39.1122436 C28.2687377,38.3743287 28.3877564,37.649231 28.6221314,36.9570923 C29.3948365,34.954834 31.1068725,33.4103393 33.1036378,32.8564453 C33.4414673,33.9569091 33.9733887,34.9786378 34.6801758,35.8557129 C35.0280762,36.2860106 35.5361939,36.510315 36.0498047,36.510315 C36.4370728,36.510315 36.8270873,36.3830566 37.1520996,36.1212159 C37.9083253,35.5114746 38.0264283,34.4055176 37.4176027,33.6492919 C36.6293334,32.6705932 36.1944581,31.3760377 36.1944581,30.0027466 C36.1944581,28.8262941 36.5084838,27.7157592 37.1035767,26.7929077 C37.6290893,25.977173 37.3937988,24.8895263 36.5771484,24.3630982 C35.7614135,23.8385011 34.6728516,24.0737916 34.1473388,24.8895263 C33.3032227,26.2005614 32.8088379,27.7258301 32.7017213,29.3344116 C30.2325441,29.864502 28.0599975,31.321106 26.5924073,33.3728027 C25.4187012,31.7532349 24.7677612,29.7930909 24.7677612,27.7542115 C24.7677612,23.7808228 27.1582031,20.2770996 30.8560181,18.8269043 C31.4483644,18.5952759 31.8685913,18.0615234 31.9555664,17.4316406 C32.3730469,14.4158934 34.987793,12.1426392 38.0374146,12.1426392 C39.7457885,12.1426392 41.3323973,12.8274537 42.505188,14.0716552 C42.6672363,14.2428588 42.7569581,14.4708253 42.7569581,14.7116088 L42.7569581,17.7438354 C40.513916,17.8207397 38.3596802,18.6895753 36.6677857,20.239563 C35.9518432,20.8959961 35.9042358,22.0074464 36.5597534,22.7233887 C36.9067383,23.1024169 37.3800659,23.2937623 37.8561401,23.2937623 C38.2800293,23.2937623 38.7057495,23.1417846 39.0435792,22.8323365 C40.0790405,21.8829347 41.3891602,21.3400268 42.7560424,21.264038 L42.7560424,48.2592773 C42.7560424,49.2279052 41.9815064,50.0225831 41.029358,50.0299073 Z M62.4362182,33.3728027 C60.9686278,31.321106 58.7960815,29.864502 56.3269043,29.3344116 C56.2197877,27.7258301 55.7254029,26.2005614 54.8812866,24.8895263 C54.355774,24.0737916 53.2681275,23.8385011 52.4514771,24.3630982 C51.6348267,24.8895263 51.3995362,25.977173 51.9250488,26.7929077 C52.519226,27.7157592 52.8341674,28.8262941 52.8341674,30.0027466 C52.8341674,31.3760377 52.3992919,32.6705932 51.6110229,33.6492919 C51.0012818,34.4055176 51.1203002,35.5114746 51.8765259,36.1212159 C52.201538,36.3830566 52.5915527,36.510315 52.9788209,36.510315 C53.4915162,36.510315 54.0005494,36.2860106 54.3484498,35.8557129 C55.0552369,34.9786378 55.5871582,33.9569091 55.9249877,32.8564453 C57.9217528,33.4103393 59.6337891,34.954834 60.4055787,36.9580078 C60.6399537,37.6501465 60.7598878,38.3743287 60.7598878,39.1122436 C60.7598878,42.8192137 57.7441406,45.8340455 54.0380859,45.8340455 C53.8027955,45.8340455 53.5601808,45.8203125 53.3175659,45.7946777 C52.044983,45.5877684 50.8547974,44.9908448 49.875183,44.0652466 C49.1693114,43.3987427 48.0569459,43.4298705 47.390442,44.1357422 C46.7230223,44.8416138 46.7550659,45.9539794 47.4609375,46.621399 C48.4213256,47.5286864 49.5217896,48.2299805 50.7092285,48.7005614 C50.0894166,49.5153809 49.1134643,50.0308228 48.0258178,50.0308228 L47.9992676,50.0299073 C47.0462037,50.0225831 46.2716674,49.2279052 46.2716674,48.2592773 L46.2716674,21.2631225 C47.6385497,21.3391113 48.9486694,21.8829347 49.9850463,22.8314208 C50.3219604,23.1408691 50.7476808,23.2937623 51.1715698,23.2937623 C51.647644,23.2937623 52.1218873,23.1024169 52.4679565,22.7233887 C53.1243895,22.0074464 53.0758666,20.8959961 52.3599244,20.239563 C50.6680298,18.6895753 48.5147095,17.8198242 46.2716674,17.7429199 L46.2716674,14.7116088 C46.2716674,14.4708253 46.3604738,14.2437745 46.522522,14.0716552 C47.6953125,12.8274537 49.2819213,12.1426392 50.9902955,12.1426392 C54.0408326,12.1426392 56.654663,14.4168091 57.0721434,17.4316406 C57.1591186,18.0615234 57.5793457,18.5952759 58.171692,18.8278198 C61.8695067,20.2770996 64.2599496,23.7808228 64.2599496,27.7542115 C64.2608644,29.7930909 63.6099244,31.7532349 62.4362182,33.3728027 Z" id="Shape" fill="#000000"></path>
                <path d="M80.3924559,63.9559936 C80.2331543,63.6877441 80.0006105,63.4597779 79.7277832,63.3078002 L66.7108153,56.0961914 C67.715149,54.4674682 68.8027955,52.8790284 69.9746705,51.3409425 C74.2428588,45.7388306 76.4987182,39.0444947 76.4987182,31.9839478 C76.4987182,24.9362182 74.2492676,18.2492065 69.9920653,12.6489258 C69.4052123,11.8753052 68.302002,11.7251587 67.5292969,12.3120117 C66.7556763,12.8997802 66.6055298,14.0029908 67.1932983,14.7756959 C70.9817505,19.7598267 72.9840089,25.7107545 72.9840089,31.9839478 C72.9840089,38.269043 70.9762573,44.2254637 67.1786498,49.2105103 C61.1764526,57.0877076 57.1966552,66.2063599 55.6430053,75.6188965 L33.3901978,75.6188965 C31.8493652,66.112976 27.909851,57.0501708 21.9735717,49.3716431 C17.9122924,44.1192628 15.8139038,37.5540162 16.0647584,30.885315 C16.6149902,16.2442017 28.5067748,4.23522938 43.1359863,3.54766852 C50.0170898,3.22082531 56.7700195,5.38421625 62.1469116,9.63317859 C62.9086303,10.2346802 64.0145873,10.1046752 64.6160888,9.34387219 C65.2185059,8.58215344 65.0885011,7.47619641 64.3267823,6.87469477 C58.2843019,2.10021984 50.7000731,-0.325927734 42.9711914,0.035705625 C34.9960327,0.411071719 27.4813842,3.77197266 21.8096925,9.49951172 C16.1398315,15.2261353 12.8512573,22.7746582 12.55188,30.7534791 C12.2698973,38.2434082 14.6282958,45.619812 19.1921998,51.5222168 C20.3256225,52.9888917 21.38031,54.5095826 22.3562623,56.0751342 L9.30084234,63.3087159 C9.02984625,63.4588622 8.79180914,63.6877441 8.63616938,63.9569091 L0.563049375,77.7163697 C0.00274659375,78.6712645 -0.145568906,79.786377 0.147399844,80.8557129 C0.439453125,81.9241334 1.13433844,82.8085327 2.10388172,83.3459473 L8.39447016,86.8313599 L8.39447016,99.2083739 C8.39447016,99.8474121 8.74145508,100.436096 9.30084234,100.74646 L43.6624146,119.78302 C44.1860963,120.072327 44.8434448,120.073242 45.3662109,119.78302 L66.8920898,107.857361 C67.7407838,107.38678 68.0484009,106.317444 67.5778198,105.467835 C67.1072388,104.619141 66.0369872,104.311523 65.1882935,104.782104 L46.2725831,115.262146 L46.2725831,90.352478 L51.1294556,98.6306763 C51.8911744,99.9298097 53.2379152,100.652161 54.6331786,100.652161 C55.3051758,100.652161 55.9872436,100.484619 56.6217042,100.133972 L77.1185302,88.7786864 L77.1185302,98.1719972 L72.3083496,100.837097 C71.4596557,101.307678 71.1520385,102.377014 71.6226197,103.226624 C71.9439698,103.805237 72.5436401,104.13208 73.1616211,104.13208 C73.4500123,104.13208 73.742981,104.061585 74.0121459,103.912354 L79.7277832,100.745544 C80.2871705,100.436096 80.6341552,99.8464966 80.6341552,99.2074584 L80.6341552,86.8304442 L86.9247436,83.3450318 C87.8942871,82.8085327 88.5891724,81.9241334 88.8812255,80.8547974 C89.1741942,79.786377 89.0258789,78.6712645 88.4655762,77.7154542 L80.3924559,63.9559936 Z M44.5138549,81.8737793 L39.570923,79.1345215 L49.4577026,79.1345215 L44.5138549,81.8737793 Z M75.2490234,64.8458862 L59.6264648,73.5003661 C60.7104492,68.5482787 62.5103761,63.7097168 64.9566652,59.1439819 L75.2490234,64.8458862 Z M24.1186523,59.1183471 C26.5521239,63.6465455 28.3419799,68.4970092 29.4177246,73.5095215 L13.7796021,64.8458862 L24.1186523,59.1183471 Z M11.9100952,88.7786864 L15.2041627,90.6033326 C15.4742433,90.7534791 15.7662963,90.8239746 16.0546875,90.8239746 C16.6726685,90.8239746 17.2732545,90.4971314 17.5936889,89.9176027 C18.0642701,89.0689087 17.7566529,87.9986573 16.907959,87.5280762 L3.80676281,80.2697754 C3.62731922,80.169983 3.56140125,80.0125123 3.53759766,79.9273683 C3.51379406,79.8422241 3.4909057,79.6728516 3.59436047,79.4952394 L10.800476,67.2152709 L42.0858764,84.5480346 L34.8669434,96.8518066 C34.7113036,97.116394 34.3789673,97.2079467 34.1107177,97.0587159 L23.6233521,91.2487793 C22.7746582,90.7791138 21.7044068,91.0858153 21.2338256,91.9345092 C20.7641602,92.7841186 21.0708619,93.8534545 21.9195558,94.3240357 L32.4069213,100.133972 C33.0404662,100.485535 33.7225341,100.652161 34.3945312,100.652161 C35.7897949,100.652161 37.1365357,99.9298097 37.8991699,98.6315918 L42.7560424,90.3533934 L42.7560424,115.26123 L11.9100952,98.1719972 L11.9100952,88.7786864 Z M85.4901122,79.9273683 C85.4672241,80.0125123 85.4013061,80.169983 85.2209473,80.2697754 L54.9179077,97.0587159 C54.6487427,97.2079467 54.3164062,97.116394 54.1616822,96.8518066 L46.9418334,84.5480346 L78.2281495,67.2152709 L85.4333496,79.4952394 C85.5377198,79.6728516 85.513916,79.8422241 85.4901122,79.9273683 Z" id="Shape" fill="#000000"></path>
                <path d="M7.99621594,50.9390259 L8.00445563,50.9390259 C8.97583008,50.9344481 9.75860602,50.1434325 9.75404841,49.1729737 L9.75219727,48.7353516 C9.74670422,47.7667237 8.96026617,46.9857788 7.99438477,46.9857788 C7.99072266,46.9857788 7.98797602,46.9857788 7.98522937,46.9857788 C7.01477063,46.9903566 6.23107922,47.7813722 6.23563685,48.7527466 L6.23840344,49.1903686 C6.24298102,50.1580809 7.02850336,50.9390259 7.99621594,50.9390259 Z" id="Path" fill="#000000"></path>
                <path d="M6.25305187,55.6420898 C6.25762945,56.6107177 7.0440675,57.3916627 8.01086437,57.3916627 L8.01910406,57.3916627 C8.99047852,57.3870848 9.77325445,56.5960692 9.76869685,55.6246948 L9.7668457,55.1870728 C9.76135266,54.2193605 8.97583008,53.4384155 8.0090332,53.4384155 C8.00628656,53.4384155 8.00262445,53.4384155 7.99987781,53.4384155 C7.02941906,53.4429933 6.24572766,54.2340089 6.251192,55.2044677 L6.25305187,55.6420898 Z" id="Path" fill="#000000"></path>
                <path d="M11.0092163,53.9401245 L11.0192871,53.9401245 L11.4559936,53.9382935 C12.4273683,53.9328002 13.210144,53.1417846 13.2055864,52.1713256 C13.2000731,51.2036133 12.4145508,50.4226685 11.4477539,50.4226685 C11.4440918,50.4226685 11.4413452,50.4226685 11.4385988,50.4226685 L11.0009766,50.4244995 C10.0296021,50.4299927 9.24682617,51.2210084 9.25138378,52.1914673 C9.25689703,53.1591797 10.0424194,53.9401245 11.0092163,53.9401245 Z" id="Path" fill="#000000"></path>
                <path d="M4.55657953,53.9547729 L4.56665039,53.9547729 L5.00427234,53.952942 C5.97473156,53.9474487 6.75750727,53.156433 6.75294966,52.1859741 C6.74743641,51.2182617 5.96191406,50.437317 4.99511719,50.437317 C4.99237055,50.437317 4.98870844,50.437317 4.98596203,50.437317 L4.54833984,50.4391479 C3.57696539,50.4446412 2.79418945,51.2356568 2.79965377,52.2061158 C2.80426031,53.1738281 3.59069813,53.9547729 4.55657953,53.9547729 Z" id="Path" fill="#000000"></path>
                <path d="M83.7689008,37.284851 L83.770752,37.7224732 C83.776245,38.6901855 84.5617676,39.4711303 85.5285645,39.4711303 L85.5377198,39.4711303 C86.5081786,39.4665527 87.29187,38.6755371 87.2873124,37.7050781 L87.2845458,37.2674559 C87.2799682,36.2997436 86.4935302,35.5178834 85.5267333,35.5178834 C85.5239869,35.5178834 85.5212402,35.5178834 85.5184936,35.5178834 C84.5471191,35.5233764 83.7643432,36.314392 83.7689008,37.284851 L83.7689008,37.284851 Z" id="Path" fill="#000000"></path>
                <path d="M85.5441284,45.9246825 L85.5532837,45.9246825 C86.5237427,45.9191895 87.3065184,45.1281738 87.3019608,44.1577148 L87.2991942,43.7200927 C87.2946166,42.7514648 86.5081786,41.9705201 85.5422974,41.9705201 C85.5386353,41.9705201 85.5358887,41.9705201 85.5322266,41.9705201 C84.5617676,41.9760131 83.7789916,42.7670288 83.7835492,43.7384034 L83.7863159,44.1751099 C83.7908934,45.1437377 84.5773315,45.9246825 85.5441284,45.9246825 Z" id="Path" fill="#000000"></path>
                <path d="M88.9810181,38.9547729 C88.9782715,38.9547729 88.9755248,38.9547729 88.9718627,38.9547729 L88.5342408,38.9566041 C87.5637818,38.9620971 86.7810059,39.7521973 86.7846552,40.7226563 C86.7901612,41.6912841 87.5756836,42.4731445 88.5424805,42.4731445 L88.5507202,42.4731445 L88.9883423,42.4703979 C89.9597168,42.4658203 90.7424927,41.6748047 90.7379351,40.7043457 C90.7342528,39.7366334 89.947815,38.9547729 88.9810181,38.9547729 L88.9810181,38.9547729 Z" id="Path" fill="#000000"></path>
                <path d="M82.0898438,42.4868775 L82.0989989,42.4868775 L82.5357056,42.4850463 C83.5070801,42.4804688 84.289856,41.6894531 84.2862067,40.7189941 C84.2807006,39.7512818 83.4951783,38.9694213 82.5283814,38.9694213 C82.5256348,38.9694213 82.5228881,38.9694213 82.5201417,38.9694213 L82.0825195,38.9712525 C81.1111451,38.9758301 80.3283691,39.7668457 80.3320185,40.7373047 C80.3366088,41.7059325 81.1230469,42.4868775 82.0898438,42.4868775 L82.0898438,42.4868775 Z" id="Path" fill="#000000"></path>
                <path d="M11.0037232,9.13513172 L11.0128784,9.13513172 C11.9833373,9.12963867 12.7661133,8.33862305 12.7615557,7.36816406 L12.7587891,6.93054187 C12.7542115,5.96282953 11.9677734,5.18188477 11.001892,5.18188477 C10.9982299,5.18188477 10.9954833,5.18188477 10.9918214,5.18188477 C10.0213622,5.18646234 9.23858648,5.97747797 9.24314409,6.94885266 L9.2459107,7.38647461 C9.25048828,8.35418695 10.0369263,9.13513172 11.0037232,9.13513172 Z" id="Path" fill="#000000"></path>
                <path d="M12.7734375,13.3831786 C12.7688599,12.4154662 11.9824219,11.6345215 11.0165405,11.6345215 C11.0128784,11.6345215 11.0101317,11.6345215 11.0064698,11.6345215 C10.0360106,11.6390991 9.25323492,12.4301147 9.25779253,13.4014894 L9.26055914,13.8391113 C9.26513672,14.8068237 10.0515748,15.5877684 11.0183716,15.5877684 L11.0275268,15.5877684 C11.9979858,15.5822754 12.7807617,14.7912598 12.7762041,13.8208008 L12.7734375,13.3831786 Z" id="Path" fill="#000000"></path>
                <path d="M14.0167237,12.1362305 L14.0267944,12.1362305 L14.4644166,12.1334838 C15.4348755,12.1289062 16.2176512,11.3378906 16.2130936,10.3665162 C16.2075806,9.39880359 15.422058,8.61785883 14.4552612,8.61785883 C14.4525145,8.61785883 14.4488527,8.61785883 14.446106,8.61785883 L14.0084838,8.62060547 C13.0371094,8.62518305 12.2543334,9.41619867 12.259798,10.3875731 C12.2644043,11.3552857 13.0508423,12.1362305 14.0167237,12.1362305 Z" id="Path" fill="#000000"></path>
                <path d="M7.56408703,12.1508789 L7.57324219,12.1508789 L8.01086437,12.149048 C8.98223883,12.1435547 9.76501453,11.3525391 9.75955022,10.3811646 C9.75494391,9.41345203 8.96850586,8.63250727 8.00262445,8.63250727 C7.99896234,8.63250727 7.99621594,8.63250727 7.99255359,8.63250727 L7.55493164,8.63525391 C6.58447266,8.63983148 5.80169672,9.43176281 5.80625455,10.4022216 C5.81176758,11.3699341 6.59729016,12.1508789 7.56408703,12.1508789 Z" id="Path" fill="#000000"></path>
                <path d="M78.8580323,47.3803711 C77.8875731,47.3849487 77.1047974,48.1759643 77.109355,49.1473387 L77.1121216,49.5849609 C77.1166992,50.5526733 77.9031373,51.3336183 78.8699341,51.3336183 L78.8790893,51.3336183 C79.8495483,51.328125 80.6323242,50.5371094 80.6277666,49.5666504 L80.6259155,49.1290284 C80.6204224,48.1576538 79.8220826,47.3812866 78.8580323,47.3803711 L78.8580323,47.3803711 Z" id="Path" fill="#000000"></path>
                <path d="M78.8845826,57.786255 L78.8937377,57.786255 C79.8651122,57.7807617 80.6478881,56.9897461 80.6424238,56.0192871 L80.6405639,55.5816652 C80.6350709,54.6139526 79.8495483,53.8330078 78.8827514,53.8330078 C78.8790893,53.8330078 78.8763427,53.8330078 78.8735963,53.8330078 C77.9022216,53.8375854 77.1194459,54.628601 77.1249102,55.5999755 L77.1267701,56.0375977 C77.1313477,57.00531 77.9177857,57.786255 78.8845826,57.786255 Z" id="Path" fill="#000000"></path>
                <path d="M81.8829347,54.3347168 L81.8930053,54.3347168 L82.3306275,54.3319702 C83.3010865,54.3273926 84.0838622,53.536377 84.0793046,52.5650025 C84.0737916,51.5972902 83.288269,50.8163452 82.3214721,50.8163452 C82.3187255,50.8163452 82.3150636,50.8163452 82.312317,50.8163452 L81.8746948,50.8190918 C80.9033203,50.8236694 80.1205444,51.614685 80.1260089,52.5860597 C80.1306152,53.553772 80.9170533,54.3347168 81.8829347,54.3347168 Z" id="Path" fill="#000000"></path>
                <path d="M75.8596802,50.8309904 L75.422058,50.8337402 C74.4506836,50.8383178 73.6679077,51.6302489 73.6733722,52.6007081 C73.6779785,53.5684205 74.4644166,54.3493652 75.4312134,54.3493652 L75.4403686,54.3493652 L75.8779908,54.3466186 C76.8484498,54.342041 77.6312255,53.5510254 77.6266679,52.5796509 C77.6220703,51.609192 76.8411255,50.8291627 75.8596802,50.8309904 Z" id="Path" fill="#000000"></path>
                <path d="M78.9294434,20.2075195 C79.1519166,20.977478 79.8541261,21.477356 80.6176758,21.477356 C80.7788086,21.477356 80.942688,21.4553834 81.1056518,21.4077759 L82.9010011,20.8895873 C83.8339233,20.6204224 84.3713379,19.6453856 84.102173,18.7133789 C83.8330078,17.7804565 82.8579712,17.2421264 81.9259643,17.512207 L80.1306152,18.0303956 C79.1976928,18.2995605 78.6593627,19.2745971 78.9294434,20.2075195 Z" id="Path" fill="#000000"></path>
                <path d="M78.5998535,17.4069213 C79.0612793,17.4069213 79.5217896,17.2265625 79.8669434,16.8676758 L81.1624146,15.520935 C81.835327,14.8214721 81.8142701,13.7091066 81.1148072,13.0352784 C80.4144286,12.3623658 79.302063,12.3843384 78.6291504,13.0838013 L77.3336791,14.4305419 C76.659851,15.130005 76.6818237,16.2423705 77.3812866,16.9161987 C77.7218627,17.2439576 78.1613159,17.4069213 78.5998535,17.4069213 Z" id="Path" fill="#000000"></path>
                <path d="M83.3175659,22.9806518 L81.5029908,22.5320435 C80.5618287,22.298584 79.6078491,22.8744506 79.3743895,23.8165284 C79.1418457,24.7595215 79.7167969,25.7116699 80.6588745,25.9451295 L82.4734498,26.3937377 C82.6144409,26.4285279 82.7572631,26.445923 82.8964233,26.445923 C83.685608,26.445923 84.4033814,25.9103393 84.6020508,25.1092528 C84.8345948,24.1671752 84.2596434,23.2141113 83.3175659,22.9806518 Z" id="Path" fill="#000000"></path>
                <path d="M5.09307867,36.7556763 C5.12329102,36.7556763 5.15441906,36.7556763 5.18554688,36.7529297 L7.05230719,36.6558839 C8.02185047,36.6046144 8.76708984,35.7778931 8.71582031,34.8083496 C8.66546625,33.8388061 7.838745,33.085327 6.86828625,33.1448365 L5.00244141,33.242798 C4.03289789,33.2931518 3.28765875,34.119873 3.33892828,35.090332 C3.38745117,36.0287475 4.16381836,36.7556763 5.09307867,36.7556763 Z" id="Path" fill="#000000"></path>
                <path d="M5.07202148,31.1114503 L6.73645031,31.960144 C6.99279797,32.090149 7.26470953,32.1524048 7.53295898,32.1524048 C8.17291266,32.1524048 8.78997797,31.8008423 9.10125727,31.1920167 C9.54162609,30.3268432 9.19738781,29.2684936 8.33313,28.8272095 L6.6677857,27.9785156 C5.80261219,27.538147 4.74426281,27.8814698 4.30297852,28.7466431 C3.86260992,29.6118164 4.2068482,30.6710815 5.07202148,31.1114503 Z" id="Path" fill="#000000"></path>
                <path d="M8.95935047,40.7968139 C9.77416992,40.2685547 10.0057983,39.1799927 9.47662359,38.3651733 C8.94836437,37.5512695 7.85888672,37.3196412 7.04498297,37.8488159 L5.47760016,38.8659668 C4.66369641,39.394226 4.43206781,40.4837037 4.96032703,41.2976074 C5.29724109,41.8157958 5.86120594,42.0986939 6.43615734,42.0986939 C6.76391602,42.0986939 7.0962525,42.0062255 7.39196766,41.8148803 L8.95935047,40.7968139 Z" id="Path" fill="#000000"></path>
            </g>
        </g>
    </g>
</svg>