<?xml version="1.0" encoding="UTF-8"?>
<svg width="120px" height="120px" viewBox="0 0 120 120" version="1.1" xmlns="http://www.w3.org/2000/svg" xmlns:xlink="http://www.w3.org/1999/xlink">
    <!-- Generator: sketchtool 63.1 (101010) - https://sketch.com -->
    <title>75F361B5-3EEE-49B3-8B07-4137CDE2AE9B</title>
    <desc>Created with sketchtool.</desc>
    <g id="Challenge-Pages" stroke="none" stroke-width="1" fill="none" fill-rule="evenodd">
        <g id="1-Select-Target" transform="translate(-914.000000, -455.000000)" fill-rule="nonzero">
            <g id="prototype" transform="translate(914.000000, 455.000000)">
                <path d="M104.516129,120 C95.9787097,120 89.0322581,113.053548 89.0322581,104.516129 C89.0322581,95.9787097 95.9787097,89.0322581 104.516129,89.0322581 C113.053548,89.0322581 120,95.9787097 120,104.516129 C120,113.053548 113.053548,120 104.516129,120 Z M104.516129,100.645161 C102.38129,100.645161 100.645161,102.38129 100.645161,104.516129 C100.645161,106.650968 102.38129,108.387097 104.516129,108.387097 C106.650968,108.387097 108.387097,106.650968 108.387097,104.516129 C108.387097,102.38129 106.650968,100.645161 104.516129,100.645161 Z" id="Shape" fill="#FFC000"></path>
                <path d="M104.516129,75.483871 C95.9787097,75.483871 89.0322581,68.5374194 89.0322581,60 C89.0322581,51.4625806 95.9787097,44.516129 104.516129,44.516129 C113.053548,44.516129 120,51.4625806 120,60 C120,68.5374194 113.053548,75.483871 104.516129,75.483871 Z M104.516129,56.1290323 C102.38129,56.1290323 100.645161,57.8651613 100.645161,60 C100.645161,62.1348387 102.38129,63.8709677 104.516129,63.8709677 C106.650968,63.8709677 108.387097,62.1348387 108.387097,60 C108.387097,57.8651613 106.650968,56.1290323 104.516129,56.1290323 Z" id="Shape" fill="#FFC000"></path>
                <path d="M104.516129,30.9677419 C95.9787097,30.9677419 89.0322581,24.0212903 89.0322581,15.483871 C89.0322581,6.94645161 95.9787097,0 104.516129,0 C113.053548,0 120,6.94645161 120,15.483871 C120,24.0212903 113.053548,30.9677419 104.516129,30.9677419 Z M104.516129,11.6129032 C102.38129,11.6129032 100.645161,13.3490323 100.645161,15.483871 C100.645161,17.6187097 102.38129,19.3548387 104.516129,19.3548387 C106.650968,19.3548387 108.387097,17.6187097 108.387097,15.483871 C108.387097,13.3490323 106.650968,11.6129032 104.516129,11.6129032 Z" id="Shape" fill="#FFC000"></path>
                <g id="Group" transform="translate(0.000000, 9.677419)" fill="#000000">
                    <path d="M13.5483871,23.2258065 L17.4193548,23.2258065 C17.4193548,22.1574194 18.2864516,21.2903226 19.3548387,21.2903226 L19.3548387,17.4193548 C16.1535484,17.4193548 13.5483871,20.0245161 13.5483871,23.2258065 Z" id="Path"></path>
                    <path d="M30.9677419,27.0967742 C30.9677419,23.8954839 28.3625806,21.2903226 25.1612903,21.2903226 L25.1612903,25.1612903 C26.2296774,25.1612903 27.0967742,26.0283871 27.0967742,27.0967742 L30.9677419,27.0967742 Z" id="Path"></path>
                    <path d="M11.6129032,34.8387097 L11.6129032,38.7096774 C14.8141935,38.7096774 17.4193548,36.1045161 17.4193548,32.9032258 L13.5483871,32.9032258 C13.5483871,33.9716129 12.6812903,34.8387097 11.6129032,34.8387097 Z" id="Path"></path>
                    <path d="M65.8064516,3.87096774 C62.6051613,3.87096774 60,6.47612903 60,9.67741935 L60,14.7019355 C54.6987097,9.13548387 47.5916129,5.27032258 39.5303226,4.18451613 C37.863871,3.96 36.1606452,4.46709677 34.8870968,5.57806452 C34.2948387,6.09483871 33.8341935,6.72774194 33.4993548,7.41870968 C31.3858065,5.23548387 28.4322581,3.87096774 25.1612903,3.87096774 C20.9709677,3.87096774 17.156129,6.11225806 15.1006452,9.68322581 C8.87419355,9.88645161 3.87096774,15.0154839 3.87096774,21.2903226 C3.87096774,22.7380645 4.15548387,24.1819355 4.70903226,25.5483871 C1.76516129,27.7180645 0,31.1341935 0,34.8387097 C0,38.6477419 1.85032258,42.0232258 4.6916129,44.1406452 C4.16129032,45.4877419 3.87096774,46.923871 3.87096774,48.3870968 C3.87096774,54.1993548 8.16774194,59.0148387 13.7496774,59.8567742 C14.3187097,62.8490323 16.0664516,66.0793548 17.0690323,67.7419355 L15.483871,67.7419355 C12.2825806,67.7419355 9.67741935,70.3470968 9.67741935,73.5483871 C9.67741935,76.2251613 11.5064516,78.4625806 13.9741935,79.1303226 C13.7051613,79.8 13.5483871,80.5258065 13.5483871,81.2903226 C13.5483871,83.9670968 15.3774194,86.2045161 17.8451613,86.8722581 C17.576129,87.5419355 17.4193548,88.2677419 17.4193548,89.0322581 C17.4193548,91.5522581 19.0432258,93.6812903 21.2903226,94.4825806 L21.2903226,96.7741935 C21.2903226,104.243226 27.3696774,110.322581 34.8387097,110.322581 C42.3077419,110.322581 48.3870968,104.243226 48.3870968,96.7741935 L48.3870968,94.4825806 C50.6341935,93.6812903 52.2580645,91.5522581 52.2580645,89.0322581 C52.2580645,88.2677419 52.1012903,87.5419355 51.8322581,86.8722581 C54.3,86.2025806 56.1290323,83.9670968 56.1290323,81.2903226 C56.1290323,80.5258065 55.9722581,79.8 55.7032258,79.1303226 C58.1709677,78.4606452 60,76.2251613 60,73.5483871 C60,70.3470968 57.3948387,67.7419355 54.1935484,67.7419355 L67.7419355,67.7419355 C68.8103226,67.7419355 69.6774194,68.6090323 69.6774194,69.6774194 L69.6774194,90.9677419 C69.6774194,94.1690323 72.2825806,96.7741935 75.483871,96.7741935 L89.1658065,96.7741935 C89.0864516,96.1393548 89.0322581,95.4948387 89.0322581,94.8387097 C89.0322581,94.1825806 89.0864516,93.5380645 89.1658065,92.9032258 L75.483871,92.9032258 C74.4154839,92.9032258 73.5483871,92.036129 73.5483871,90.9677419 L73.5483871,69.6774194 C73.5483871,66.476129 70.9432258,63.8709677 67.7419355,63.8709677 L58.923871,63.8709677 C60.183871,62.6651613 61.3412903,61.3683871 62.4,60 L75.483871,60 C76.5522581,60 77.4193548,60.8670968 77.4193548,61.9354839 L77.4193548,69.6774194 C77.4193548,72.8787097 80.0245161,75.483871 83.2258065,75.483871 L85.5174194,75.483871 C85.3006452,74.876129 85.1612903,74.2296774 85.1612903,73.5483871 C85.1612903,72.8670968 85.3006452,72.2206452 85.5174194,71.6129032 L83.2258065,71.6129032 C82.1574194,71.6129032 81.2903226,70.7458065 81.2903226,69.6774194 L81.2903226,61.9354839 C81.2903226,58.7341935 78.6851613,56.1290323 75.483871,56.1290323 L64.9954839,56.1290323 C65.7174194,54.8806452 66.36,53.5896774 66.9232258,52.2580645 L89.1677419,52.2580645 C89.0864516,51.6232258 89.0322581,50.9787097 89.0322581,50.3225806 C89.0322581,49.6664516 89.0864516,49.0219355 89.1658065,48.3870968 L68.2935484,48.3870968 C68.6593548,47.1193548 68.9554839,45.8283871 69.1780645,44.516129 L75.483871,44.516129 C78.6851613,44.516129 81.2903226,41.9109677 81.2903226,38.7096774 L81.2903226,30.9677419 C81.2903226,29.8993548 82.1574194,29.0322581 83.2258065,29.0322581 L85.5174194,29.0322581 C85.3006452,28.4245161 85.1612903,27.7780645 85.1612903,27.0967742 C85.1612903,26.4154839 85.3006452,25.7690323 85.5174194,25.1612903 L83.2258065,25.1612903 C80.0245161,25.1612903 77.4193548,27.7664516 77.4193548,30.9677419 L77.4193548,38.7096774 C77.4193548,39.7780645 76.5522581,40.6451613 75.483871,40.6451613 L69.6174194,40.6451613 C69.6522581,40.0025806 69.6774194,39.3580645 69.6774194,38.7096774 C69.6774194,31.6877419 67.5309677,25.0974194 63.8709677,19.5619355 L63.8709677,9.67741935 C63.8709677,8.60903226 64.7380645,7.74193548 65.8064516,7.74193548 L89.1658065,7.74193548 C89.0864516,7.10709677 89.0322581,6.46258065 89.0322581,5.80645161 C89.0322581,5.15032258 89.0864516,4.50580645 89.1658065,3.87096774 L65.8064516,3.87096774 Z M36.7741935,75.483871 L36.7741935,35.8741935 L40.3993548,33.4587097 L44.2819355,37.3412903 C44.58,37.6393548 44.8935484,37.92 45.2225806,38.1812903 L39.0058065,75.483871 L36.7741935,75.483871 Z M15.483871,71.6129032 L21.2903226,71.6129032 L21.2903226,67.1516129 L20.9651613,66.663871 C20.1677419,65.4677419 18.3658065,62.3535484 17.6941935,59.7832258 C23.043871,58.7477419 27.0967742,54.0348387 27.0967742,48.3870968 L23.2258065,48.3870968 C23.2258065,52.6567742 19.7535484,56.1290323 15.483871,56.1290323 C11.2141935,56.1290323 7.74193548,52.6567742 7.74193548,48.3870968 C7.74193548,47.5432258 7.89483871,46.7167742 8.15806452,45.9270968 C9.24967742,46.2677419 10.4109677,46.4516129 11.6129032,46.4516129 C18.0174194,46.4516129 23.2258065,41.2432258 23.2258065,34.8387097 L19.3548387,34.8387097 C19.3548387,39.1083871 15.8825806,42.5806452 11.6129032,42.5806452 C7.34322581,42.5806452 3.87096774,39.1083871 3.87096774,34.8387097 C3.87096774,31.9509677 5.49290323,29.3225806 8.10580645,27.9832258 L9.9483871,27.0367742 L8.87806452,25.2619355 C8.12322581,24.0116129 7.74193548,22.676129 7.74193548,21.2903226 C7.74193548,17.0206452 11.2141935,13.5483871 15.483871,13.5483871 C15.5554839,13.5503226 15.6270968,13.563871 15.6967742,13.5735484 C15.8303226,13.5929032 15.9677419,13.6103226 16.1051613,13.62 L17.4929032,13.7303226 L18.0387097,12.4509677 C19.26,9.59032258 22.0567742,7.74193548 25.1612903,7.74193548 C29.4309677,7.74193548 32.9032258,11.2141935 32.9032258,15.483871 L32.9032258,75.483871 L19.3548387,75.483871 L15.483871,75.483871 C14.4154839,75.483871 13.5483871,74.6167742 13.5483871,73.5483871 C13.5483871,72.48 14.4154839,71.6129032 15.483871,71.6129032 Z M34.8387097,106.451613 C29.5025806,106.451613 25.1612903,102.110323 25.1612903,96.7741935 L25.1612903,94.8387097 L44.516129,94.8387097 L44.516129,96.7741935 C44.516129,102.110323 40.1748387,106.451613 34.8387097,106.451613 Z M46.4516129,90.9677419 L23.2258065,90.9677419 C22.1574194,90.9677419 21.2903226,90.1006452 21.2903226,89.0322581 C21.2903226,87.963871 22.1574194,87.0967742 23.2258065,87.0967742 L46.4516129,87.0967742 C47.52,87.0967742 48.3870968,87.963871 48.3870968,89.0322581 C48.3870968,90.1006452 47.52,90.9677419 46.4516129,90.9677419 Z M50.3225806,83.2258065 L46.4516129,83.2258065 L23.2258065,83.2258065 L19.3548387,83.2258065 C18.2864516,83.2258065 17.4193548,82.3587097 17.4193548,81.2903226 C17.4193548,80.2219355 18.2864516,79.3548387 19.3548387,79.3548387 L50.3225806,79.3548387 C51.3909677,79.3548387 52.2580645,80.2219355 52.2580645,81.2903226 C52.2580645,82.3587097 51.3909677,83.2258065 50.3225806,83.2258065 Z M49.4090323,66.0309677 L48.3870968,66.5767742 L48.3870968,71.6129032 L54.1935484,71.6129032 C55.2619355,71.6129032 56.1290323,72.48 56.1290323,73.5483871 C56.1290323,74.6167742 55.2619355,75.483871 54.1935484,75.483871 L50.3225806,75.483871 L42.9290323,75.483871 L48.8264516,40.1051613 C49.9316129,40.4574194 51.0890323,40.6451613 52.2580645,40.6451613 C55.4593548,40.6451613 58.0645161,38.04 58.0645161,34.8387097 C58.0645161,31.6374194 55.4593548,29.0322581 52.2580645,29.0322581 L51.6658065,29.0322581 C48.9174194,29.0322581 46.5793548,30.9270968 45.9967742,33.5825806 L40.8890323,28.4767742 L36.7741935,31.2212903 L36.7741935,9.94451613 C36.7741935,9.38129032 37.0083871,8.86451613 37.4341935,8.49290323 C37.8716129,8.10967742 38.4387097,7.94129032 39.0116129,8.02258065 C54.2883871,10.0780645 65.8064516,23.2703226 65.8064516,38.7096774 C65.8064516,50.156129 59.523871,60.6251613 49.4090323,66.0309677 L49.4090323,66.0309677 Z M49.4748387,36.2264516 L49.7574194,34.5193548 C49.9122581,33.5845161 50.7154839,32.9032258 51.6658065,32.9032258 L52.2580645,32.9032258 C53.3264516,32.9032258 54.1935484,33.7703226 54.1935484,34.8387097 C54.1935484,35.9070968 53.3264516,36.7741935 52.2580645,36.7741935 C51.3,36.7741935 50.3535484,36.5825806 49.4748387,36.2264516 L49.4748387,36.2264516 Z" id="Shape"></path>
                    <path d="M104.516129,89.0322581 C101.314839,89.0322581 98.7096774,91.6374194 98.7096774,94.8387097 C98.7096774,98.04 101.314839,100.645161 104.516129,100.645161 C107.717419,100.645161 110.322581,98.04 110.322581,94.8387097 C110.322581,91.6374194 107.717419,89.0322581 104.516129,89.0322581 Z M104.516129,96.7741935 C103.447742,96.7741935 102.580645,95.9070968 102.580645,94.8387097 C102.580645,93.7703226 103.447742,92.9032258 104.516129,92.9032258 C105.584516,92.9032258 106.451613,93.7703226 106.451613,94.8387097 C106.451613,95.9070968 105.584516,96.7741935 104.516129,96.7741935 Z" id="Shape"></path>
                    <path d="M104.516129,44.516129 C101.314839,44.516129 98.7096774,47.1212903 98.7096774,50.3225806 C98.7096774,53.523871 101.314839,56.1290323 104.516129,56.1290323 C107.717419,56.1290323 110.322581,53.523871 110.322581,50.3225806 C110.322581,47.1212903 107.717419,44.516129 104.516129,44.516129 Z M104.516129,52.2580645 C103.447742,52.2580645 102.580645,51.3909677 102.580645,50.3225806 C102.580645,49.2541935 103.447742,48.3870968 104.516129,48.3870968 C105.584516,48.3870968 106.451613,49.2541935 106.451613,50.3225806 C106.451613,51.3909677 105.584516,52.2580645 104.516129,52.2580645 Z" id="Shape"></path>
                    <path d="M104.516129,11.6129032 C107.717419,11.6129032 110.322581,9.00774194 110.322581,5.80645161 C110.322581,2.60516129 107.717419,0 104.516129,0 C101.314839,0 98.7096774,2.60516129 98.7096774,5.80645161 C98.7096774,9.00774194 101.314839,11.6129032 104.516129,11.6129032 Z M104.516129,3.87096774 C105.584516,3.87096774 106.451613,4.73806452 106.451613,5.80645161 C106.451613,6.87483871 105.584516,7.74193548 104.516129,7.74193548 C103.447742,7.74193548 102.580645,6.87483871 102.580645,5.80645161 C102.580645,4.73806452 103.447742,3.87096774 104.516129,3.87096774 Z" id="Shape"></path>
                </g>
                <path d="M90.9677419,42.5806452 C87.7664516,42.5806452 85.1612903,39.9754839 85.1612903,36.7741935 C85.1612903,33.5729032 87.7664516,30.9677419 90.9677419,30.9677419 C94.1690323,30.9677419 96.7741935,33.5729032 96.7741935,36.7741935 C96.7741935,39.9754839 94.1690323,42.5806452 90.9677419,42.5806452 Z" id="Path" fill="#FFC000"></path>
                <path d="M90.9677419,89.0322581 C87.7664516,89.0322581 85.1612903,86.4270968 85.1612903,83.2258065 C85.1612903,80.0245161 87.7664516,77.4193548 90.9677419,77.4193548 C94.1690323,77.4193548 96.7741935,80.0245161 96.7741935,83.2258065 C96.7741935,86.4270968 94.1690323,89.0322581 90.9677419,89.0322581 Z" id="Path" fill="#FFC000"></path>
            </g>
        </g>
    </g>
</svg>